<?xml version="1.0" encoding="UTF-8" standalone="no"?>
<svg
   xmlns:dc="http://purl.org/dc/elements/1.1/"
   xmlns:cc="http://creativecommons.org/ns#"
   xmlns:rdf="http://www.w3.org/1999/02/22-rdf-syntax-ns#"
   xmlns:svg="http://www.w3.org/2000/svg"
   xmlns="http://www.w3.org/2000/svg"
   xmlns:sodipodi="http://sodipodi.sourceforge.net/DTD/sodipodi-0.dtd"
   xmlns:inkscape="http://www.inkscape.org/namespaces/inkscape"
   viewBox="0 0 989.29999 766.69995"
   version="1.1"
   id="svg136"
   sodipodi:docname="master_develop_features_releases_hotfix.svg"
   width="989.29999"
   height="766.69995"
   inkscape:version="0.92.1 r15371">
  <metadata
     id="metadata142">
    <rdf:RDF>
      <cc:Work
         rdf:about="">
        <dc:format>image/svg+xml</dc:format>
        <dc:type
           rdf:resource="http://purl.org/dc/dcmitype/StillImage" />
        <dc:title></dc:title>
      </cc:Work>
    </rdf:RDF>
  </metadata>
  <defs
     id="defs140" />
  <sodipodi:namedview
     pagecolor="#ffffff"
     bordercolor="#666666"
     borderopacity="1"
     objecttolerance="10"
     gridtolerance="10"
     guidetolerance="10"
     inkscape:pageopacity="0"
     inkscape:pageshadow="2"
     inkscape:window-width="746"
     inkscape:window-height="480"
     id="namedview138"
     showgrid="false"
     fit-margin-top="100"
     fit-margin-left="100"
     fit-margin-right="100"
     fit-margin-bottom="100"
     inkscape:zoom="0.36625"
     inkscape:cx="494.3"
     inkscape:cy="382.89998"
     inkscape:window-x="2364"
     inkscape:window-y="113"
     inkscape:window-maximized="0"
     inkscape:current-layer="svg136" />
  <style
     id="style2">.st0{display:none;} .st1{display:inline;} .st2{fill:#FFFFFF;} .st3{fill:none;stroke:#9882CE;stroke-width:4;stroke-miterlimit:10;} .st4{fill:#FFFFFF;stroke:#404040;stroke-width:4;stroke-linecap:round;stroke-linejoin:round;stroke-miterlimit:10;} .st5{fill:#FFFFFF;stroke:#404040;stroke-width:4;stroke-miterlimit:10;} .st6{fill:#B3E3FF;stroke:#404040;stroke-width:4;stroke-miterlimit:10;} .st7{fill:#B18BE8;stroke:#404040;stroke-width:4;stroke-miterlimit:10;} .st8{fill:#FFFFFF;stroke:#404040;stroke-width:6;stroke-miterlimit:10;} .st9{fill:#B3E3FF;stroke:#404040;stroke-width:6;stroke-miterlimit:10;} .st10{fill:#404040;} .st11{fill:none;stroke:#404040;stroke-width:4;stroke-linecap:round;stroke-linejoin:round;stroke-miterlimit:10;} .st12{fill:#B18BE8;stroke:#404040;stroke-width:4;stroke-linecap:round;stroke-linejoin:round;stroke-miterlimit:10;} .st13{fill:#444444;} .st14{fill:none;stroke:#404040;stroke-width:4;stroke-miterlimit:10;} .st15{fill:#4ED1A1;stroke:#404040;stroke-width:4;stroke-miterlimit:10;} .st16{fill:none;stroke:#CCCCCC;stroke-width:7;stroke-linecap:round;stroke-linejoin:round;stroke-miterlimit:10;} .st17{fill:#FFFFFF;stroke:#CCCCCC;stroke-width:7;stroke-linecap:round;stroke-linejoin:round;stroke-miterlimit:10;} .st18{fill:none;stroke:#404040;stroke-width:7;stroke-miterlimit:10;} .st19{fill:#B3E3FF;stroke:#404040;stroke-width:7;stroke-miterlimit:10;} .st20{fill:none;stroke:#CCCCCC;stroke-width:8;stroke-linecap:round;stroke-miterlimit:10;} .st21{fill:none;stroke:#404040;stroke-width:8;stroke-linecap:round;stroke-miterlimit:10;} .st22{fill:#FFFFFF;stroke:#404040;stroke-width:4;stroke-linejoin:round;stroke-miterlimit:10;} .st23{fill:#B3E3FF;stroke:#404040;stroke-width:4;stroke-linejoin:round;stroke-miterlimit:10;} .st24{fill:none;stroke:#CCCCCC;stroke-linecap:round;stroke-linejoin:round;stroke-miterlimit:10;} .st25{fill:#999999;} .st26{fill:#4ED1A1;stroke:#404040;stroke-width:4;stroke-linecap:round;stroke-linejoin:round;stroke-miterlimit:10;} .st27{fill:#4CD3D6;stroke:#404040;stroke-width:4;stroke-linejoin:round;stroke-miterlimit:10;} .st28{fill:none;stroke:#59AFE1;stroke-width:4;stroke-miterlimit:10;} .st29{fill:#59AFE1;stroke:#404040;stroke-width:4;stroke-linejoin:round;stroke-miterlimit:10;} .st30{fill:none;stroke:#404040;stroke-width:8;stroke-linecap:round;stroke-linejoin:round;stroke-miterlimit:10;stroke-dasharray:0,30;} .st31{fill:#FFFFFF;stroke:#59AFE1;stroke-width:4;stroke-miterlimit:10;} .st32{fill:#FC8363;stroke:#404040;stroke-width:4;stroke-linecap:round;stroke-linejoin:round;stroke-miterlimit:10;} .st33{fill:#CCCCCC;stroke:#404040;stroke-width:4;stroke-miterlimit:10;} .st34{fill:#FFFFFF;stroke:#6693ED;stroke-width:4;stroke-miterlimit:10;} .st35{fill:none;stroke:#A97CDD;stroke-width:4;stroke-linecap:round;stroke-linejoin:round;stroke-miterlimit:10;} .st36{fill:none;stroke:#B3E3FF;stroke-width:4;stroke-linecap:round;stroke-linejoin:round;stroke-miterlimit:10;} .st37{fill:none;stroke:#4ED1A1;stroke-width:4;stroke-linecap:round;stroke-miterlimit:10;} .st38{fill:none;stroke:#4ED1A1;stroke-width:4;stroke-linecap:round;stroke-linejoin:round;stroke-miterlimit:10;} .st39{fill:#E24B88;stroke:#404040;stroke-width:4;stroke-linecap:round;stroke-linejoin:round;stroke-miterlimit:10;} .st40{fill:none;stroke:#DEEFF8;stroke-width:4;stroke-miterlimit:10;} .st41{fill:none;stroke:#CCCCCC;stroke-width:4;stroke-linecap:round;stroke-linejoin:round;} .st42{fill:none;stroke:#CCCCCC;stroke-width:4;stroke-linecap:round;stroke-linejoin:round;stroke-dasharray:0,14.3051;} .st43{fill:none;stroke:#CCCCCC;stroke-width:4;stroke-linecap:round;stroke-linejoin:round;stroke-dasharray:0,14.1689;} .st44{fill:none;stroke:#CCCCCC;stroke-width:4;stroke-linecap:round;stroke-linejoin:round;stroke-dasharray:0,13.9788;} .st45{fill:none;stroke:#CCCCCC;stroke-width:4;stroke-linecap:round;stroke-linejoin:round;stroke-dasharray:0,14.7877;} .st46{fill:none;stroke:#CCCCCC;stroke-width:4;stroke-linecap:round;stroke-linejoin:round;stroke-dasharray:0,14.9632;} .st47{fill:#B3E3FF;stroke:#404040;stroke-width:4;stroke-linecap:round;stroke-linejoin:round;stroke-miterlimit:10;} .st48{fill:none;stroke:#CCCCCC;stroke-width:4;stroke-linecap:round;stroke-linejoin:round;stroke-dasharray:0,12.543;} .st49{fill:none;stroke:#CCCCCC;stroke-width:4;stroke-linecap:round;stroke-linejoin:round;stroke-dasharray:0,13.6844;} .st50{fill:none;stroke:#CCCCCC;stroke-width:4;stroke-linecap:round;stroke-linejoin:round;stroke-dasharray:0,13.7717;} .st51{fill:none;stroke:#CCCCCC;stroke-width:4;stroke-linecap:round;stroke-linejoin:round;stroke-dasharray:0,13.6492;} .st52{fill:none;stroke:#CCCCCC;stroke-width:4;stroke-linecap:round;stroke-linejoin:round;stroke-dasharray:0,13.907;} .st53{fill:#4CD3D6;stroke:#404040;stroke-width:4;stroke-linecap:round;stroke-linejoin:round;stroke-miterlimit:10;} .st54{fill:none;stroke:#CCCCCC;stroke-width:4;stroke-linecap:round;stroke-linejoin:round;stroke-dasharray:0,14.9858;} .st55{fill:none;stroke:#CCCCCC;stroke-width:4;stroke-linecap:round;stroke-linejoin:round;stroke-dasharray:0,14.0118;} .st56{fill:none;stroke:#CCCCCC;stroke-width:4;stroke-linecap:round;stroke-linejoin:round;stroke-dasharray:0,14.1243;} .st57{fill:none;} .st58{fill:#FFFFFF;stroke:#404040;stroke-width:7;stroke-linecap:round;stroke-linejoin:round;stroke-miterlimit:10;} .st59{fill:#59AFE1;stroke:#404040;stroke-width:7;stroke-linejoin:round;stroke-miterlimit:10;} .st60{fill:#E24B88;stroke:#404040;stroke-width:7;stroke-linecap:round;stroke-linejoin:round;stroke-miterlimit:10;} .st61{fill:none;stroke:#404040;stroke-width:7;stroke-linecap:round;stroke-linejoin:round;stroke-miterlimit:10;} .st62{fill:none;stroke:#CCCCCC;stroke-width:4;stroke-linecap:round;stroke-linejoin:round;stroke-miterlimit:10;} .st63{fill:#FFFFFF;stroke:#CCCCCC;stroke-width:4;stroke-linecap:round;stroke-linejoin:round;stroke-miterlimit:10;} .st64{fill:#F5F5F5;} .st65{fill:#3873AE;} .st66{fill:#75706C;} .st67{fill:none;stroke:#B3E3FF;stroke-width:4;stroke-miterlimit:10;} .st68{fill:#6F6F6F;} .st69{fill:none;stroke:#6F6F6F;stroke-width:2;stroke-miterlimit:10;} .st70{fill:none;stroke:#6F6F6F;stroke-width:3;stroke-miterlimit:10;}</style>
  <path
     class="st14"
     d="m 518.7,556.7 c 0,-17 13.8,-30.8 30.8,-30.8"
     id="path4"
     inkscape:connector-curvature="0"
     style="fill:none;stroke:#404040;stroke-width:4;stroke-miterlimit:10" />
  <path
     class="st14"
     d="m 348.4,556.7 c 0,-17 -13.8,-30.8 -30.8,-30.8 m -58.8,123 h 213.9"
     id="path6"
     inkscape:connector-curvature="0"
     style="fill:none;stroke:#404040;stroke-width:4;stroke-miterlimit:10" />
  <circle
     class="st15"
     cx="410.09998"
     cy="648.89996"
     r="15.8"
     id="circle8"
     style="fill:#4ed1a1;stroke:#404040;stroke-width:4;stroke-miterlimit:10" />
  <circle
     class="st15"
     cx="457"
     cy="648.89996"
     r="15.8"
     id="circle10"
     style="fill:#4ed1a1;stroke:#404040;stroke-width:4;stroke-miterlimit:10" />
  <circle
     class="st15"
     cx="336.79999"
     cy="648.89996"
     r="15.8"
     id="circle12"
     style="fill:#4ed1a1;stroke:#404040;stroke-width:4;stroke-miterlimit:10" />
  <path
     class="st14"
     d="M 870.5,525.9 H 274.2"
     id="path14"
     inkscape:connector-curvature="0"
     style="fill:none;stroke:#404040;stroke-width:4;stroke-miterlimit:10" />
  <circle
     class="st7"
     cx="579.5"
     cy="525.90002"
     r="15.8"
     id="circle16"
     style="fill:#b18be8;stroke:#404040;stroke-width:4;stroke-miterlimit:10" />
  <circle
     class="st7"
     cx="410.09998"
     cy="525.90002"
     r="15.8"
     id="circle18"
     style="fill:#b18be8;stroke:#404040;stroke-width:4;stroke-miterlimit:10" />
  <circle
     class="st7"
     cx="870.5"
     cy="525.90002"
     r="15.8"
     id="circle20"
     style="fill:#b18be8;stroke:#404040;stroke-width:4;stroke-miterlimit:10" />
  <path
     class="st14"
     d="m 348.4,556.7 c 0,17 13.8,30.8 30.8,30.8 H 487.1 M 179.2,371.8 c 0,17 13.8,30.8 30.8,30.8 h 17.3"
     id="path22"
     inkscape:connector-curvature="0"
     style="fill:none;stroke:#404040;stroke-width:4;stroke-miterlimit:10" />
  <circle
     class="st15"
     cx="410.09998"
     cy="587.40002"
     r="15.8"
     id="circle24"
     style="fill:#4ed1a1;stroke:#404040;stroke-width:4;stroke-miterlimit:10" />
  <circle
     class="st15"
     cx="457"
     cy="587.40002"
     r="15.8"
     id="circle26"
     style="fill:#4ed1a1;stroke:#404040;stroke-width:4;stroke-miterlimit:10" />
  <path
     class="st14"
     d="m 487.1,587.4 h 0.9 c 17,0 30.8,-13.8 30.8,-30.8"
     id="path28"
     inkscape:connector-curvature="0"
     style="fill:none;stroke:#404040;stroke-width:4;stroke-miterlimit:10" />
  <path
     class="st42"
     d="M 151.5,402.9 H 115.8"
     id="path30"
     inkscape:connector-curvature="0"
     style="fill:none;stroke:#cccccc;stroke-width:4;stroke-linecap:round;stroke-linejoin:round;stroke-dasharray:0, 14.3051" />
  <path
     class="st41"
     d="m 108.6,402.9 m 762,0"
     id="path32"
     inkscape:connector-curvature="0"
     style="fill:none;stroke:#cccccc;stroke-width:4;stroke-linecap:round;stroke-linejoin:round" />
  <path
     class="st43"
     d="M 856.4,402.9 H 339.2"
     id="path34"
     inkscape:connector-curvature="0"
     style="fill:none;stroke:#cccccc;stroke-width:4;stroke-linecap:round;stroke-linejoin:round;stroke-dasharray:0, 14.1689" />
  <path
     class="st41"
     d="m 332.1,402.9 m 307.7,61.5"
     id="path36"
     inkscape:connector-curvature="0"
     style="fill:none;stroke:#cccccc;stroke-width:4;stroke-linecap:round;stroke-linejoin:round" />
  <path
     class="st44"
     d="M 625.8,464.4 H 115.6"
     id="path38"
     inkscape:connector-curvature="0"
     style="fill:none;stroke:#cccccc;stroke-width:4;stroke-linecap:round;stroke-linejoin:round;stroke-dasharray:0, 13.9788" />
  <path
     class="st41"
     d="m 108.6,464.4 m 762,0"
     id="path40"
     inkscape:connector-curvature="0"
     style="fill:none;stroke:#cccccc;stroke-width:4;stroke-linecap:round;stroke-linejoin:round" />
  <path
     class="st45"
     d="M 855.8,464.4 H 804"
     id="path42"
     inkscape:connector-curvature="0"
     style="fill:none;stroke:#cccccc;stroke-width:4;stroke-linecap:round;stroke-linejoin:round;stroke-dasharray:0, 14.7877" />
  <path
     class="st41"
     d="m 796.6,464.4 m 73.9,-123"
     id="path44"
     inkscape:connector-curvature="0"
     style="fill:none;stroke:#cccccc;stroke-width:4;stroke-linecap:round;stroke-linejoin:round" />
  <path
     class="st46"
     d="M 855.6,341.4 H 773.3"
     id="path46"
     inkscape:connector-curvature="0"
     style="fill:none;stroke:#cccccc;stroke-width:4;stroke-linecap:round;stroke-linejoin:round;stroke-dasharray:0, 14.9632" />
  <path
     class="st14"
     d="m 179.2,372.2 c 0,-17 -13.8,-30.8 -30.8,-30.8 M 306,371.8 c 0,17 -13.8,30.8 -30.8,30.8 h -48 M 306,372.2 c 0,-17 13.8,-30.8 30.8,-30.8 m 30.7,184.5 c -17,0 -30.8,-13.8 -30.8,-30.8 v -61.8 m 0,0 c 0,-17 -13.8,-30.8 -30.8,-30.8 M 179.2,372.2"
     id="path48"
     inkscape:connector-curvature="0"
     style="fill:none;stroke:#404040;stroke-width:4;stroke-miterlimit:10" />
  <circle
     class="st15"
     cx="243"
     cy="648.89996"
     r="15.8"
     id="circle50"
     style="fill:#4ed1a1;stroke:#404040;stroke-width:4;stroke-miterlimit:10" />
  <path
     class="st14"
     d="M 739.3,341.4 H 133.5"
     id="path52"
     inkscape:connector-curvature="0"
     style="fill:none;stroke:#404040;stroke-width:4;stroke-miterlimit:10" />
  <circle
     class="st6"
     cx="117.8"
     cy="341.39999"
     r="15.8"
     id="circle54"
     style="fill:#b3e3ff;stroke:#404040;stroke-width:4;stroke-miterlimit:10" />
  <circle
     class="st6"
     cx="410.09998"
     cy="341.39999"
     r="15.8"
     id="circle56"
     style="fill:#b3e3ff;stroke:#404040;stroke-width:4;stroke-miterlimit:10" />
  <circle
     class="st6"
     cx="739.29999"
     cy="341.39999"
     r="15.8"
     id="circle58"
     style="fill:#b3e3ff;stroke:#404040;stroke-width:4;stroke-miterlimit:10" />
  <path
     class="st47"
     d="m 143.3,235.9 h 42.5 v 37.5 h -42.5 z"
     id="path60"
     inkscape:connector-curvature="0"
     style="fill:#b3e3ff;stroke:#404040;stroke-width:4;stroke-linecap:round;stroke-linejoin:round;stroke-miterlimit:10" />
  <path
     class="st10"
     d="m 156.9,259.2 h -1.2 l -2.5,-6.3 h 1.4 l 1.8,4.8 1.8,-4.8 h 1.3 z m 4.7,-7.3 c 0.5,-0.8 1.4,-1.4 2.6,-1.4 1.2,0 2,0.5 2.6,1.4 0.6,0.8 0.8,1.9 0.8,3.1 0,1.2 -0.2,2.2 -0.8,3.1 -0.5,0.8 -1.4,1.4 -2.6,1.4 -1.2,0 -2,-0.5 -2.6,-1.4 -0.6,-0.8 -0.8,-1.9 -0.8,-3.1 0,-1.2 0.2,-2.3 0.8,-3.1 z m 1.2,5.8 c 0.3,0.3 0.7,0.5 1.3,0.5 0.6,0 1,-0.2 1.3,-0.5 0.5,-0.5 0.7,-1.4 0.7,-2.7 0,-1.3 -0.2,-2.2 -0.7,-2.7 -0.3,-0.3 -0.7,-0.5 -1.3,-0.5 -0.6,0 -1,0.2 -1.3,0.5 -0.5,0.5 -0.7,1.4 -0.7,2.7 0,1.3 0.2,2.1 0.7,2.7 z m 7.3,-0.3 c 0.5,0 0.9,0.4 0.9,0.9 0,0.5 -0.4,0.9 -0.9,0.9 -0.5,0 -0.9,-0.4 -0.9,-0.9 0,-0.5 0.4,-0.9 0.9,-0.9 z m 3.9,1.8 v -5.9 h -2 v -0.9 c 1.2,0 2,-0.7 2.2,-1.6 h 1.1 v 8.4 z"
     id="path62"
     inkscape:connector-curvature="0"
     style="fill:#404040" />
  <path
     class="st11"
     d="m 164.6,307.5 v -17.6 m 8.2,11.1 -8.2,8.2 -8.1,-8.2"
     id="path64"
     inkscape:connector-curvature="0"
     style="fill:none;stroke:#404040;stroke-width:4;stroke-linecap:round;stroke-linejoin:round;stroke-miterlimit:10" />
  <path
     class="st47"
     d="m 388.9,235.9 h 42.5 v 37.5 h -42.5 z"
     id="path66"
     inkscape:connector-curvature="0"
     style="fill:#b3e3ff;stroke:#404040;stroke-width:4;stroke-linecap:round;stroke-linejoin:round;stroke-miterlimit:10" />
  <path
     class="st10"
     d="m 400.8,259.2 h -1.2 l -2.5,-6.3 h 1.4 l 1.8,4.8 1.8,-4.8 h 1.3 z m 4.7,-7.3 c 0.5,-0.8 1.4,-1.4 2.6,-1.4 1.2,0 2,0.5 2.6,1.4 0.6,0.8 0.8,1.9 0.8,3.1 0,1.2 -0.2,2.2 -0.8,3.1 -0.5,0.8 -1.4,1.4 -2.6,1.4 -1.2,0 -2,-0.5 -2.6,-1.4 -0.6,-0.8 -0.8,-1.9 -0.8,-3.1 0,-1.2 0.2,-2.3 0.8,-3.1 z m 1.2,5.8 c 0.3,0.3 0.7,0.5 1.3,0.5 0.6,0 1,-0.2 1.3,-0.5 0.5,-0.5 0.7,-1.4 0.7,-2.7 0,-1.3 -0.2,-2.2 -0.7,-2.7 -0.3,-0.3 -0.7,-0.5 -1.3,-0.5 -0.6,0 -1,0.2 -1.3,0.5 -0.5,0.5 -0.7,1.4 -0.7,2.7 0,1.3 0.2,2.1 0.7,2.7 z m 7.3,-0.3 c 0.5,0 0.9,0.4 0.9,0.9 0,0.5 -0.4,0.9 -0.9,0.9 -0.5,0 -0.9,-0.4 -0.9,-0.9 0,-0.5 0.4,-0.9 0.9,-0.9 z m 3,-3.8 v -0.3 c 0,-1.4 1.1,-2.7 2.9,-2.7 1.8,0 2.8,1.2 2.8,2.6 0,1.1 -0.6,2 -1.6,2.6 l -1.7,1.1 c -0.5,0.3 -0.9,0.7 -1,1.2 h 4.3 v 1.2 h -5.9 c 0,-1.4 0.6,-2.4 2,-3.4 l 1.4,-0.9 c 0.8,-0.5 1.2,-1.1 1.2,-1.8 0,-0.8 -0.5,-1.5 -1.6,-1.5 -1.1,0 -1.6,0.8 -1.6,1.7 v 0.4 z"
     id="path68"
     inkscape:connector-curvature="0"
     style="fill:#404040" />
  <path
     class="st11"
     d="m 410.1,307.5 v -17.6 m 8.2,11.1 -8.2,8.2 -8.1,-8.2"
     id="path70"
     inkscape:connector-curvature="0"
     style="fill:none;stroke:#404040;stroke-width:4;stroke-linecap:round;stroke-linejoin:round;stroke-miterlimit:10" />
  <path
     class="st47"
     d="m 718.1,235.9 h 42.5 v 37.5 h -42.5 z"
     id="path72"
     inkscape:connector-curvature="0"
     style="fill:#b3e3ff;stroke:#404040;stroke-width:4;stroke-linecap:round;stroke-linejoin:round;stroke-miterlimit:10" />
  <path
     class="st10"
     d="m 731.1,259.2 h -1.2 l -2.5,-6.3 h 1.4 l 1.8,4.8 1.8,-4.8 h 1.3 z m 5.6,0 v -5.9 h -2 v -0.9 c 1.2,0 2,-0.7 2.2,-1.6 h 1.1 v 8.4 z m 4.6,-1.8 c 0.5,0 0.9,0.4 0.9,0.9 0,0.5 -0.4,0.9 -0.9,0.9 -0.5,0 -0.9,-0.4 -0.9,-0.9 0,-0.5 0.4,-0.9 0.9,-0.9 z m 3.6,-5.5 c 0.5,-0.8 1.4,-1.4 2.6,-1.4 1.2,0 2,0.5 2.6,1.4 0.6,0.8 0.8,1.9 0.8,3.1 0,1.2 -0.2,2.2 -0.8,3.1 -0.5,0.8 -1.4,1.4 -2.6,1.4 -1.2,0 -2,-0.5 -2.6,-1.4 -0.6,-0.8 -0.8,-1.9 -0.8,-3.1 0,-1.2 0.3,-2.3 0.8,-3.1 z m 1.3,5.8 c 0.3,0.3 0.7,0.5 1.3,0.5 0.6,0 1,-0.2 1.3,-0.5 0.5,-0.5 0.7,-1.4 0.7,-2.7 0,-1.3 -0.2,-2.2 -0.7,-2.7 -0.3,-0.3 -0.7,-0.5 -1.3,-0.5 -0.6,0 -1,0.2 -1.3,0.5 -0.5,0.5 -0.7,1.4 -0.7,2.7 0,1.3 0.2,2.1 0.7,2.7 z"
     id="path74"
     inkscape:connector-curvature="0"
     style="fill:#404040" />
  <path
     class="st11"
     d="m 739.3,307.5 v -17.6 m 8.2,11.1 -8.2,8.2 -8.1,-8.2"
     id="path76"
     inkscape:connector-curvature="0"
     style="fill:none;stroke:#404040;stroke-width:4;stroke-linecap:round;stroke-linejoin:round;stroke-miterlimit:10" />
  <path
     class="st48"
     d="M 158.8,525.9 H 114.9"
     id="path78"
     inkscape:connector-curvature="0"
     style="fill:none;stroke:#cccccc;stroke-width:4;stroke-linecap:round;stroke-linejoin:round;stroke-dasharray:0, 12.543" />
  <path
     class="st41"
     d="m 108.6,525.9 m 246.3,61.5"
     id="path80"
     inkscape:connector-curvature="0"
     style="fill:none;stroke:#cccccc;stroke-width:4;stroke-linecap:round;stroke-linejoin:round" />
  <path
     class="st49"
     d="M 341.2,587.4 H 115.5"
     id="path82"
     inkscape:connector-curvature="0"
     style="fill:none;stroke:#cccccc;stroke-width:4;stroke-linecap:round;stroke-linejoin:round;stroke-dasharray:0, 13.6844" />
  <path
     class="st41"
     d="m 108.6,587.4 m 762,0"
     id="path84"
     inkscape:connector-curvature="0"
     style="fill:none;stroke:#cccccc;stroke-width:4;stroke-linecap:round;stroke-linejoin:round" />
  <path
     class="st50"
     d="M 856.8,587.4 H 519.4"
     id="path86"
     inkscape:connector-curvature="0"
     style="fill:none;stroke:#cccccc;stroke-width:4;stroke-linecap:round;stroke-linejoin:round;stroke-dasharray:0, 13.7717" />
  <path
     class="st41"
     d="M 512.5,587.4 M 217.8,648.9"
     id="path88"
     inkscape:connector-curvature="0"
     style="fill:none;stroke:#cccccc;stroke-width:4;stroke-linecap:round;stroke-linejoin:round" />
  <path
     class="st51"
     d="M 204.2,648.9 H 115.4"
     id="path90"
     inkscape:connector-curvature="0"
     style="fill:none;stroke:#cccccc;stroke-width:4;stroke-linecap:round;stroke-linejoin:round;stroke-dasharray:0, 13.6492" />
  <path
     class="st41"
     d="m 108.6,648.9 m 762,0"
     id="path92"
     inkscape:connector-curvature="0"
     style="fill:none;stroke:#cccccc;stroke-width:4;stroke-linecap:round;stroke-linejoin:round" />
  <path
     class="st52"
     d="M 856.6,648.9 H 488.1"
     id="path94"
     inkscape:connector-curvature="0"
     style="fill:none;stroke:#cccccc;stroke-width:4;stroke-linecap:round;stroke-linejoin:round;stroke-dasharray:0, 13.907" />
  <path
     class="st53"
     d="M 377.8,102 H 474 v 50 h -96.2 z"
     id="path96"
     inkscape:connector-curvature="0"
     style="fill:#4cd3d6;stroke:#404040;stroke-width:4;stroke-linecap:round;stroke-linejoin:round;stroke-miterlimit:10" />
  <path
     class="st10"
     d="m 403.1,128.6 h -1.6 v 4.3 H 400 v -10.5 h 4 c 2,0 3.3,1.4 3.3,3.2 0,1.5 -1,2.7 -2.6,3 l 2.5,4.5 h -1.7 z m 0.7,-1.3 c 1.2,0 2,-0.7 2,-1.8 0,-1.1 -0.8,-1.8 -2,-1.8 h -2.2 v 3.6 z m 12.1,3.6 c -0.4,1.3 -1.6,2.3 -3.2,2.3 -1.9,0 -3.6,-1.4 -3.6,-3.9 0,-2.3 1.6,-3.8 3.5,-3.8 2.2,0 3.5,1.5 3.5,3.8 v 0.5 h -5.4 c 0,1.3 1,2.2 2.2,2.2 1.2,0 1.8,-0.6 2,-1.5 z m -1.4,-2.3 c 0,-1 -0.7,-1.8 -2,-1.8 -1.2,0 -1.9,0.9 -2,1.8 z m 4,4.4 v -10.9 h 1.4 V 133 Z m 10.9,-2.1 c -0.4,1.3 -1.6,2.3 -3.2,2.3 -1.9,0 -3.6,-1.4 -3.6,-3.9 0,-2.3 1.6,-3.8 3.5,-3.8 2.2,0 3.5,1.5 3.5,3.8 v 0.5 h -5.4 c 0,1.3 1,2.2 2.2,2.2 1.2,0 1.8,-0.6 2,-1.5 z m -1.4,-2.3 c 0,-1 -0.7,-1.8 -2,-1.8 -1.2,0 -1.9,0.9 -2,1.8 z m 5.7,0.3 2,-0.3 c 0.4,-0.1 0.6,-0.3 0.6,-0.5 0,-0.7 -0.5,-1.3 -1.6,-1.3 -1,0 -1.5,0.6 -1.6,1.5 l -1.4,-0.3 c 0.2,-1.4 1.4,-2.3 3,-2.3 2.2,0 3,1.2 3,2.6 v 3.5 c 0,0.6 0.1,1 0.1,1.2 h -1.5 c 0,-0.2 -0.1,-0.5 -0.1,-1 -0.3,0.5 -1,1.2 -2.3,1.2 -1.5,0 -2.4,-1 -2.4,-2.2 0,-1.2 1,-2 2.2,-2.1 z m 2.5,1 v -0.3 l -2.2,0.3 c -0.6,0.1 -1,0.4 -1,1.1 0,0.5 0.5,1 1.2,1 1.1,0 2,-0.5 2,-2.1 z m 5,0.8 c 0.1,0.8 0.7,1.3 1.7,1.3 0.8,0 1.2,-0.5 1.2,-1 0,-0.4 -0.3,-0.8 -0.9,-0.9 l -1.2,-0.3 c -1.1,-0.2 -1.8,-1 -1.8,-2 0,-1.2 1.2,-2.3 2.6,-2.3 2,0 2.6,1.3 2.7,1.9 l -1.2,0.5 c -0.1,-0.4 -0.4,-1.2 -1.5,-1.2 -0.7,0 -1.2,0.5 -1.2,1 0,0.4 0.3,0.8 0.8,0.9 l 1.2,0.3 c 1.3,0.3 2,1.1 2,2.1 0,1 -0.9,2.2 -2.6,2.2 -2,0 -2.8,-1.3 -2.9,-2.1 z m 13.1,0.2 c -0.4,1.3 -1.6,2.3 -3.2,2.3 -1.9,0 -3.6,-1.4 -3.6,-3.9 0,-2.3 1.6,-3.8 3.5,-3.8 2.2,0 3.5,1.5 3.5,3.8 v 0.5 h -5.4 c 0,1.3 1,2.2 2.2,2.2 1.2,0 1.8,-0.6 2,-1.5 z m -1.4,-2.3 c 0,-1 -0.7,-1.8 -2,-1.8 -1.2,0 -1.9,0.9 -2,1.8 z"
     id="path98"
     inkscape:connector-curvature="0"
     style="fill:#404040" />
  <path
     class="st12"
     d="m 515.6,102 h 96.2 v 50 h -96.2 z"
     id="path100"
     inkscape:connector-curvature="0"
     style="fill:#b18be8;stroke:#404040;stroke-width:4;stroke-linecap:round;stroke-linejoin:round;stroke-miterlimit:10" />
  <path
     class="st10"
     d="m 536,133 v -10.6 h 3.7 c 2.7,0 5.1,1.8 5.1,5.3 0,3.5 -2.4,5.3 -5.1,5.3 z m 3.6,-1.3 c 2,0 3.6,-1.3 3.6,-4 0,-2.7 -1.6,-4 -3.6,-4 h -2.2 v 8 z m 14,-0.8 c -0.4,1.3 -1.6,2.3 -3.2,2.3 -1.9,0 -3.6,-1.4 -3.6,-3.9 0,-2.3 1.6,-3.8 3.4,-3.8 2.2,0 3.5,1.5 3.5,3.8 v 0.5 h -5.4 c 0,1.3 1,2.2 2.2,2.2 1.2,0 1.8,-0.6 2,-1.5 z m -1.4,-2.3 c 0,-1 -0.7,-1.8 -2,-1.8 -1.2,0 -1.9,0.9 -2,1.8 z m 7.5,4.4 h -1.4 l -3,-7.2 h 1.6 l 2.1,5.6 2.1,-5.6 h 1.5 z m 10.7,-2.1 c -0.4,1.3 -1.6,2.3 -3.2,2.3 -1.9,0 -3.6,-1.4 -3.6,-3.9 0,-2.3 1.6,-3.8 3.5,-3.8 2.2,0 3.5,1.5 3.5,3.8 v 0.5 h -5.4 c 0,1.3 1,2.2 2.2,2.2 1.2,0 1.8,-0.6 2,-1.5 z m -1.4,-2.3 c 0,-1 -0.7,-1.8 -2,-1.8 -1.2,0 -1.9,0.9 -2,1.8 z m 4,4.4 v -10.9 h 1.4 V 133 Z m 11.4,-3.6 c 0,2.2 -1.5,3.8 -3.7,3.8 -2.2,0 -3.7,-1.6 -3.7,-3.8 0,-2.2 1.5,-3.8 3.7,-3.8 2.1,-0.1 3.7,1.6 3.7,3.8 z m -1.5,0 c 0,-1.7 -1,-2.6 -2.2,-2.6 -1.2,0 -2.2,0.9 -2.2,2.6 0,1.7 1,2.6 2.2,2.6 1.2,0 2.2,-1 2.2,-2.6 z m 4,6.4 v -10 h 1.4 v 1.1 c 0.4,-0.7 1.2,-1.3 2.4,-1.3 2.2,0 3.3,1.7 3.3,3.8 0,2.1 -1.2,3.8 -3.4,3.8 -1.1,0 -2,-0.5 -2.3,-1.2 v 3.8 z m 3.5,-8.9 c -1.3,0 -2.1,1.1 -2.1,2.5 0,1.5 0.9,2.6 2.1,2.6 1.3,0 2.1,-1.1 2.1,-2.6 0.1,-1.5 -0.7,-2.5 -2.1,-2.5 z"
     id="path102"
     inkscape:connector-curvature="0"
     style="fill:#404040" />
  <path
     class="st32"
     d="m 240.1,102 h 96.2 v 50 h -96.2 z"
     id="path104"
     inkscape:connector-curvature="0"
     style="fill:#fc8363;stroke:#404040;stroke-width:4;stroke-linecap:round;stroke-linejoin:round;stroke-miterlimit:10" />
  <path
     class="st10"
     d="m 275.2,133 v -4.7 h -5.4 v 4.7 h -1.5 v -10.6 h 1.5 v 4.5 h 5.4 v -4.5 h 1.5 V 133 Z m 11.5,-3.6 c 0,2.2 -1.5,3.8 -3.7,3.8 -2.2,0 -3.7,-1.6 -3.7,-3.8 0,-2.2 1.5,-3.8 3.7,-3.8 2.2,-0.1 3.7,1.6 3.7,3.8 z m -1.4,0 c 0,-1.7 -1,-2.6 -2.2,-2.6 -1.2,0 -2.2,0.9 -2.2,2.6 0,1.7 1,2.6 2.2,2.6 1.2,0 2.2,-1 2.2,-2.6 z m 5.8,-3.6 h 1.6 v 1.3 h -1.6 v 3.7 c 0,0.7 0.3,1 1,1 0.2,0 0.4,0 0.6,-0.1 v 1.2 c -0.1,0 -0.5,0.1 -1,0.1 -1.2,0 -2,-0.8 -2,-2.1 v -4 h -1.4 v -1.1 h 0.4 c 0.8,0 1.1,-0.5 1.1,-1.1 v -1.2 h 1.3 z m 7.8,-3.6 v 1.3 c -0.1,0 -0.3,-0.1 -0.6,-0.1 -0.5,0 -1.1,0.2 -1.1,1.2 v 1.2 h 4.8 v 7.2 h -1.4 v -5.9 h -3.4 v 5.9 h -1.5 v -5.9 h -1.3 v -1.3 h 1.3 v -1.2 c 0,-1.6 1.1,-2.5 2.4,-2.5 0.4,0 0.7,0.1 0.8,0.1 z m 2.3,-0.2 c 0.6,0 1,0.4 1,1 0,0.6 -0.5,1 -1,1 -0.6,0 -1,-0.5 -1,-1 0,-0.6 0.5,-1 1,-1 z m 5.5,7.3 -2.6,-3.5 h 1.7 l 1.8,2.5 1.7,-2.5 h 1.7 l -2.6,3.5 c 0.4,0.6 2.2,3.1 2.7,3.7 h -1.7 l -1.9,-2.7 -1.8,2.7 H 304 Z"
     id="path106"
     inkscape:connector-curvature="0"
     style="fill:#404040" />
  <path
     class="st47"
     d="m 102.3,102 h 96.2 v 50 h -96.2 z"
     id="path108"
     inkscape:connector-curvature="0"
     style="fill:#b3e3ff;stroke:#404040;stroke-width:4;stroke-linecap:round;stroke-linejoin:round;stroke-miterlimit:10" />
  <path
     class="st10"
     d="m 137,133 v -8.3 l -3.6,8.3 h -1.3 l -3.6,-8.3 V 133 H 127 v -10.6 h 2 l 3.8,8.7 3.8,-8.7 h 2 V 133 Z m 6.4,-4.1 1.9,-0.3 c 0.4,-0.1 0.6,-0.3 0.6,-0.5 0,-0.7 -0.5,-1.3 -1.6,-1.3 -1,0 -1.5,0.6 -1.6,1.5 l -1.3,-0.3 c 0.1,-1.4 1.4,-2.3 3,-2.3 2.2,0 3,1.2 3,2.6 v 3.5 c 0,0.6 0.1,1 0.1,1.2 h -1.4 c 0,-0.2 -0.1,-0.5 -0.1,-1 -0.3,0.5 -1,1.2 -2.3,1.2 -1.5,0 -2.4,-1 -2.4,-2.2 -0.1,-1.2 0.9,-2 2.1,-2.1 z m 2.5,1 v -0.3 l -2.2,0.3 c -0.6,0.1 -1,0.4 -1,1.1 0,0.5 0.4,1 1.2,1 1.1,0 2,-0.5 2,-2.1 z m 5,0.8 c 0.1,0.8 0.7,1.3 1.7,1.3 0.8,0 1.2,-0.5 1.2,-1 0,-0.4 -0.3,-0.8 -0.9,-0.9 l -1.2,-0.3 c -1.1,-0.2 -1.8,-1 -1.8,-2 0,-1.2 1.2,-2.3 2.6,-2.3 2,0 2.6,1.3 2.7,1.9 l -1.2,0.5 c -0.1,-0.4 -0.4,-1.2 -1.5,-1.2 -0.7,0 -1.2,0.5 -1.2,1 0,0.4 0.3,0.8 0.8,0.9 l 1.2,0.3 c 1.3,0.3 2,1.1 2,2.1 0,1 -0.9,2.2 -2.6,2.2 -2,0 -2.8,-1.3 -2.9,-2.1 z m 8.8,-4.9 h 1.6 v 1.3 h -1.6 v 3.7 c 0,0.7 0.3,1 1,1 0.2,0 0.4,0 0.6,-0.1 v 1.2 c -0.1,0 -0.5,0.1 -1,0.1 -1.2,0 -2,-0.8 -2,-2.1 v -4 h -1.4 v -1.1 h 0.4 c 0.8,0 1.1,-0.5 1.1,-1.1 v -1.2 h 1.3 z m 10.4,5.1 c -0.4,1.3 -1.6,2.3 -3.2,2.3 -1.9,0 -3.6,-1.4 -3.6,-3.9 0,-2.3 1.6,-3.8 3.5,-3.8 2.2,0 3.5,1.5 3.5,3.8 v 0.4 h -5.4 c 0,1.3 1,2.2 2.2,2.2 1.2,0 1.8,-0.6 2,-1.5 z m -1.4,-2.3 c 0,-1 -0.7,-1.8 -2,-1.8 -1.2,0 -1.9,0.9 -2,1.8 z m 8,-1.4 h -0.6 c -1.2,0 -2,0.6 -2,2.2 v 3.6 h -1.4 v -7.2 h 1.4 v 1.3 c 0.5,-1.1 1.4,-1.4 2.2,-1.4 h 0.5 v 1.5 z"
     id="path110"
     inkscape:connector-curvature="0"
     style="fill:#404040" />
  <path
     class="st26"
     d="m 653.4,102 h 96.2 v 50 h -96.2 z"
     id="path112"
     inkscape:connector-curvature="0"
     style="fill:#4ed1a1;stroke:#404040;stroke-width:4;stroke-linecap:round;stroke-linejoin:round;stroke-miterlimit:10" />
  <path
     class="st10"
     d="m 675.9,132.5 v -10.6 h 6.5 v 1.4 h -5 v 3.4 h 4.5 v 1.4 h -4.5 v 4.5 h -1.5 z m 14.7,-2.1 c -0.4,1.3 -1.6,2.3 -3.2,2.3 -1.9,0 -3.6,-1.4 -3.6,-3.9 0,-2.3 1.6,-3.8 3.5,-3.8 2.2,0 3.5,1.5 3.5,3.8 v 0.5 h -5.4 c 0,1.3 1,2.2 2.2,2.2 1.2,0 1.8,-0.6 2,-1.5 z m -1.5,-2.3 c 0,-1 -0.7,-1.8 -2,-1.8 -1.2,0 -1.9,0.9 -2,1.8 z m 5.8,0.3 2,-0.3 c 0.4,-0.1 0.6,-0.3 0.6,-0.5 0,-0.7 -0.5,-1.3 -1.6,-1.3 -1,0 -1.5,0.6 -1.6,1.5 l -1.3,-0.3 c 0.2,-1.4 1.4,-2.3 3,-2.3 2.2,0 3,1.2 3,2.6 v 3.6 c 0,0.6 0.1,1 0.1,1.2 h -1.4 c 0,-0.2 -0.1,-0.5 -0.1,-1 -0.3,0.5 -1,1.2 -2.3,1.2 -1.5,0 -2.4,-1 -2.4,-2.2 -0.2,-1.3 0.7,-2.1 2,-2.2 z m 2.5,1 v -0.3 l -2.2,0.3 c -0.6,0.1 -1,0.4 -1,1.1 0,0.5 0.5,1 1.2,1 1.1,0 2,-0.5 2,-2.1 z m 6.2,-4.1 h 1.6 v 1.3 h -1.6 v 3.8 c 0,0.7 0.3,1 1,1 0.2,0 0.4,0 0.6,-0.1 v 1.2 c -0.1,0 -0.5,0.1 -1,0.1 -1.2,0 -2,-0.8 -2,-2.1 v -4 h -1.4 v -1.3 h 0.4 c 0.8,0 1.1,-0.5 1.1,-1.1 v -1.2 h 1.3 z m 6.8,7.4 c -1.7,0 -2.7,-1.3 -2.7,-2.9 v -4.5 h 1.4 v 4.3 c 0,1 0.5,1.9 1.6,1.9 1.1,0 1.7,-0.8 1.7,-1.8 v -4.3 h 1.4 v 5.9 c 0,0.6 0,1.1 0.1,1.3 h -1.3 c 0,-0.2 -0.1,-0.6 -0.1,-0.9 -0.3,0.7 -1.2,1 -2.1,1 z m 10.7,-6 h -0.6 c -1.2,0 -2,0.6 -2,2.2 v 3.6 h -1.4 v -7.2 h 1.4 v 1.3 c 0.5,-1.1 1.4,-1.4 2.2,-1.4 h 0.5 v 1.5 z m 8.4,3.7 c -0.4,1.3 -1.6,2.3 -3.2,2.3 -1.9,0 -3.6,-1.4 -3.6,-3.9 0,-2.3 1.6,-3.8 3.5,-3.8 2.2,0 3.5,1.5 3.5,3.8 v 0.5 h -5.4 c 0,1.3 1,2.2 2.2,2.2 1.2,0 1.8,-0.6 2,-1.5 z m -1.4,-2.3 c 0,-1 -0.7,-1.8 -2,-1.8 -1.2,0 -1.9,0.9 -2,1.8 z"
     id="path114"
     inkscape:connector-curvature="0"
     style="fill:#404040" />
  <path
     class="st26"
     d="m 791.1,102 h 96.2 v 50 h -96.2 z"
     id="path116"
     inkscape:connector-curvature="0"
     style="fill:#4ed1a1;stroke:#404040;stroke-width:4;stroke-linecap:round;stroke-linejoin:round;stroke-miterlimit:10" />
  <path
     class="st10"
     d="m 813.7,132.5 v -10.6 h 6.5 v 1.4 h -5 v 3.4 h 4.5 v 1.4 h -4.5 v 4.5 h -1.5 z m 14.6,-2.1 c -0.4,1.3 -1.6,2.3 -3.2,2.3 -1.9,0 -3.6,-1.4 -3.6,-3.9 0,-2.3 1.6,-3.8 3.4,-3.8 2.2,0 3.5,1.5 3.5,3.8 v 0.5 H 823 c 0,1.3 1,2.2 2.2,2.2 1.2,0 1.8,-0.6 2,-1.5 z m -1.4,-2.3 c 0,-1 -0.7,-1.8 -2,-1.8 -1.2,0 -1.9,0.9 -2,1.8 z m 5.8,0.3 1.9,-0.3 c 0.4,-0.1 0.6,-0.3 0.6,-0.5 0,-0.7 -0.5,-1.3 -1.6,-1.3 -1,0 -1.5,0.6 -1.6,1.5 l -1.4,-0.3 c 0.2,-1.4 1.4,-2.3 3,-2.3 2.2,0 3,1.2 3,2.6 v 3.6 c 0,0.6 0.1,1 0.1,1.2 h -1.4 c 0,-0.2 -0.1,-0.5 -0.1,-1 -0.3,0.5 -1,1.2 -2.3,1.2 -1.5,0 -2.4,-1 -2.4,-2.2 0,-1.3 0.9,-2.1 2.2,-2.2 z m 2.5,1 v -0.3 l -2.2,0.3 c -0.6,0.1 -1,0.4 -1,1.1 0,0.5 0.4,1 1.2,1 1,0 2,-0.5 2,-2.1 z m 6.2,-4.1 h 1.6 v 1.3 h -1.6 v 3.8 c 0,0.7 0.3,1 1,1 0.2,0 0.4,0 0.6,-0.1 v 1.2 c -0.1,0 -0.5,0.1 -1,0.1 -1.2,0 -2,-0.8 -2,-2.1 v -4 h -1.4 v -1.3 h 0.4 c 0.8,0 1.1,-0.5 1.1,-1.1 v -1.2 h 1.3 z m 6.8,7.4 c -1.7,0 -2.7,-1.3 -2.7,-2.9 v -4.5 h 1.4 v 4.3 c 0,1 0.5,1.9 1.6,1.9 1.1,0 1.7,-0.8 1.7,-1.8 v -4.3 h 1.4 v 5.9 c 0,0.6 0,1.1 0.1,1.3 h -1.3 c 0,-0.2 -0.1,-0.6 -0.1,-0.9 -0.3,0.7 -1.2,1 -2.1,1 z m 10.6,-6 h -0.6 c -1.2,0 -2,0.6 -2,2.2 v 3.6 h -1.4 v -7.2 h 1.4 v 1.3 c 0.5,-1.1 1.4,-1.4 2.2,-1.4 h 0.5 v 1.5 z m 8.5,3.7 c -0.4,1.3 -1.6,2.3 -3.2,2.3 -1.9,0 -3.6,-1.4 -3.6,-3.9 0,-2.3 1.6,-3.8 3.5,-3.8 2.2,0 3.5,1.5 3.5,3.8 v 0.5 h -5.4 c 0,1.3 1,2.2 2.2,2.2 1.2,0 1.8,-0.6 2,-1.5 z m -1.4,-2.3 c 0,-1 -0.7,-1.8 -2,-1.8 -1.2,0 -1.9,0.9 -2,1.8 z"
     id="path118"
     inkscape:connector-curvature="0"
     style="fill:#404040" />
  <path
     class="st14"
     d="m 179.2,371.8 v 123.4 c 0,17 13.8,30.8 30.8,30.8 h 95.7"
     id="path120"
     inkscape:connector-curvature="0"
     style="fill:none;stroke:#404040;stroke-width:4;stroke-miterlimit:10" />
  <circle
     class="st7"
     cx="289.89999"
     cy="525.90002"
     r="15.7"
     id="circle122"
     style="fill:#b18be8;stroke:#404040;stroke-width:4;stroke-miterlimit:10" />
  <circle
     class="st7"
     cx="243"
     cy="525.90002"
     r="15.8"
     id="circle124"
     style="fill:#b18be8;stroke:#404040;stroke-width:4;stroke-miterlimit:10" />
  <circle
     class="st32"
     cx="243"
     cy="402.89999"
     r="15.8"
     id="circle126"
     style="fill:#fc8363;stroke:#404040;stroke-width:4;stroke-linecap:round;stroke-linejoin:round;stroke-miterlimit:10" />
  <path
     class="st14"
     d="m 630.8,495.2 c 0,17 -13.8,30.8 -30.8,30.8 m 201,-30.8 c 0,17 13.8,30.8 30.8,30.8 h 23 M 662.4,464.4 h -0.9 c -17,0 -30.8,13.8 -30.8,30.8 m 170.3,0 c 0,-17 -13.8,-30.8 -30.8,-30.8 H 662.4"
     id="path128"
     inkscape:connector-curvature="0"
     style="fill:none;stroke:#404040;stroke-width:4;stroke-miterlimit:10" />
  <circle
     class="st27"
     cx="739.29999"
     cy="464.39999"
     r="15.8"
     id="circle130"
     style="fill:#4cd3d6;stroke:#404040;stroke-width:4;stroke-linejoin:round;stroke-miterlimit:10" />
  <circle
     class="st27"
     cx="692.5"
     cy="464.39999"
     r="15.8"
     id="circle132"
     style="fill:#4cd3d6;stroke:#404040;stroke-width:4;stroke-linejoin:round;stroke-miterlimit:10" />
  <path
     class="st14"
     d="m 243,541.7 v 91.5 M 258.8,402.5 H 306 m 433.3,46.2 v -91.5"
     id="path134"
     inkscape:connector-curvature="0"
     style="fill:none;stroke:#404040;stroke-width:4;stroke-miterlimit:10" />
</svg>
